<svg width="101" height="101" viewBox="0 0 102 101" fill="none" xmlns="http://www.w3.org/2000/svg">
<circle cx="50.5645" cy="50.5" r="50.5" fill="#9A9A9A"/>
<path d="M82.6434 81.2558C74.4953 89.3012 63.1907 94.3022 50.6992 94.3022C38.0666 94.3022 26.6529 89.1762 18.4856 80.9683V75.5484C18.4856 68.647 24.2278 63.0459 31.3172 63.0459H69.8118C76.9012 63.0459 82.6434 68.647 82.6434 75.5484V81.2558Z" fill="#E9E9E9"/>
<path d="M50.5613 16.9839C40.1132 16.9839 31.6462 25.451 31.6462 35.8991C31.6462 46.3535 40.1132 54.8205 50.5613 54.8205C61.0095 54.8205 69.4828 46.3535 69.4828 35.8991C69.4828 25.451 61.0095 16.9839 50.5613 16.9839Z" fill="#E9E9E9"/>
</svg>
